<svg xmlns="http://www.w3.org/2000/svg" width="1280" height="640" viewBox="0 0 1280 640" role="img" aria-label="GhostChat — Anonymous Ephemeral MLS E2EE Chat">
  <defs>
    <linearGradient id="bg" x1="0%" y1="0%" x2="100%" y2="100%">
      <stop offset="0%" stop-color="#050505"/>
      <stop offset="50%" stop-color="#0a0a0a"/>
      <stop offset="100%" stop-color="#0c1a12"/>
    </linearGradient>
    <linearGradient id="glow" x1="0%" y1="50%" x2="100%" y2="50%">
      <stop offset="0%" stop-color="#33ff66" stop-opacity="0"/>
      <stop offset="50%" stop-color="#33ff66" stop-opacity="0.4"/>
      <stop offset="100%" stop-color="#33ff66" stop-opacity="0"/>
    </linearGradient>
    <linearGradient id="chipFill" x1="0%" y1="0%" x2="0%" y2="100%">
      <stop offset="0%" stop-color="#101810"/>
      <stop offset="100%" stop-color="#0a0a0a"/>
    </linearGradient>
    <pattern id="grid" width="32" height="32" patternUnits="userSpaceOnUse">
      <path d="M32 0H0V32" fill="none" stroke="#33ff66" stroke-opacity="0.055" stroke-width="1"/>
    </pattern>
    <filter id="softGlow" x="-20%" y="-20%" width="140%" height="140%">
      <feGaussianBlur stdDeviation="10" result="b"/>
      <feMerge>
        <feMergeNode in="b"/>
        <feMergeNode in="SourceGraphic"/>
      </feMerge>
    </filter>
    <filter id="titleGlow" x="-10%" y="-10%" width="120%" height="120%">
      <feGaussianBlur stdDeviation="2.8" result="b"/>
      <feMerge>
        <feMergeNode in="b"/>
        <feMergeNode in="SourceGraphic"/>
      </feMerge>
    </filter>
  </defs>

  <!-- Background -->
  <rect width="1280" height="640" fill="url(#bg)"/>
  <rect width="1280" height="640" fill="url(#grid)"/>
  <circle cx="180" cy="100" r="240" fill="#33ff66" opacity="0.035"/>
  <circle cx="1120" cy="540" r="280" fill="#33ff66" opacity="0.05"/>
  <rect x="0" y="308" width="1280" height="2" fill="url(#glow)"/>

  <!-- Terminal window -->
  <g transform="translate(140, 72)">
    <rect x="0" y="0" width="1000" height="480" rx="14" fill="#111111" stroke="#222222" stroke-width="2"
          filter="url(#softGlow)"/>
    <!-- Title bar -->
    <rect x="0" y="0" width="1000" height="48" rx="14" fill="#0d0d0d"/>
    <rect x="0" y="24" width="1000" height="24" fill="#0d0d0d"/>
    <circle cx="32" cy="24" r="7" fill="#ff4466" opacity="0.9"/>
    <circle cx="56" cy="24" r="7" fill="#fbbf24" opacity="0.9"/>
    <circle cx="80" cy="24" r="7" fill="#33ff66" opacity="0.9"/>
    <text x="500" y="29" text-anchor="middle"
          font-family="ui-monospace, SFMono-Regular, Menlo, Monaco, Consolas, monospace"
          font-size="13" fill="#6b7280" letter-spacing="3">GHOSTCHAT · V2.5 · MLS</text>

    <!-- Prompt -->
    <text x="48" y="96" font-family="ui-monospace, SFMono-Regular, Menlo, Monaco, Consolas, monospace"
          font-size="16" fill="#33ff66">$ ghost create --max 6</text>

    <text x="48" y="162" font-family="ui-monospace, SFMono-Regular, Menlo, Monaco, Consolas, monospace"
          font-size="58" font-weight="700" fill="#ffffff" filter="url(#titleGlow)" letter-spacing="-1">GhostChat</text>

    <text x="48" y="210" font-family="ui-monospace, SFMono-Regular, Menlo, Monaco, Consolas, monospace"
          font-size="22" fill="#33ff66" letter-spacing="1">Anonymous. Encrypted. Gone.</text>

    <text x="48" y="252" font-family="ui-monospace, SFMono-Regular, Menlo, Monaco, Consolas, monospace"
          font-size="15" fill="#6b7280">MLS group E2EE · ephemeral rooms · no accounts · no history</text>

    <!-- Feature chips -->
    <g transform="translate(48, 292)"
       font-family="ui-monospace, SFMono-Regular, Menlo, Monaco, Consolas, monospace" font-size="12">
      <rect x="0" y="0" width="128" height="34" rx="5" fill="url(#chipFill)" stroke="#33ff66" stroke-opacity="0.55"/>
      <text x="64" y="22" text-anchor="middle" fill="#33ff66">MLS RFC 9420</text>

      <rect x="140" y="0" width="118" height="34" rx="5" fill="url(#chipFill)" stroke="#333"/>
      <text x="199" y="22" text-anchor="middle" fill="#9ca3af">2–20 peers</text>

      <rect x="270" y="0" width="132" height="34" rx="5" fill="url(#chipFill)" stroke="#333"/>
      <text x="336" y="22" text-anchor="middle" fill="#9ca3af">Code rotates</text>

      <rect x="414" y="0" width="118" height="34" rx="5" fill="url(#chipFill)" stroke="#333"/>
      <text x="473" y="22" text-anchor="middle" fill="#9ca3af">Burn modes</text>

      <rect x="544" y="0" width="108" height="34" rx="5" fill="url(#chipFill)" stroke="#333"/>
      <text x="598" y="22" text-anchor="middle" fill="#9ca3af">Web + CLI</text>
    </g>

    <!-- Second chip row -->
    <g transform="translate(48, 338)"
       font-family="ui-monospace, SFMono-Regular, Menlo, Monaco, Consolas, monospace" font-size="12">
      <rect x="0" y="0" width="150" height="34" rx="5" fill="url(#chipFill)" stroke="#333"/>
      <text x="75" y="22" text-anchor="middle" fill="#9ca3af">E2EE images ≤1MB</text>

      <rect x="162" y="0" width="148" height="34" rx="5" fill="url(#chipFill)" stroke="#333"/>
      <text x="236" y="22" text-anchor="middle" fill="#9ca3af">ASCII emoji</text>

      <rect x="322" y="0" width="168" height="34" rx="5" fill="url(#chipFill)" stroke="#333"/>
      <text x="406" y="22" text-anchor="middle" fill="#9ca3af">Zero-knowledge relay</text>
    </g>

    <!-- Stick figures (3 peers = group) -->
    <g transform="translate(720, 288)" fill="none" stroke="#33ff66" stroke-width="2" opacity="0.9"
       font-family="ui-monospace, SFMono-Regular, Menlo, Monaco, Consolas, monospace">
      <!-- left -->
      <circle cx="28" cy="24" r="14" stroke="#33ff66"/>
      <text x="28" y="28" text-anchor="middle" font-size="10" fill="#33ff66" stroke="none">o_o</text>
      <path d="M28 38 L28 68 M28 48 L14 58 M28 48 L42 58 M28 68 L18 90 M28 68 L38 90"/>
      <!-- mid -->
      <circle cx="100" cy="20" r="14" stroke="#33ff66"/>
      <text x="100" y="24" text-anchor="middle" font-size="10" fill="#33ff66" stroke="none">^_^</text>
      <path d="M100 34 L100 64 M100 44 L86 54 M100 44 L114 54 M100 64 L90 86 M100 64 L110 86"/>
      <!-- right -->
      <circle cx="172" cy="24" r="14" stroke="#33ff66"/>
      <text x="172" y="28" text-anchor="middle" font-size="10" fill="#33ff66" stroke="none">-_-</text>
      <path d="M172 38 L172 68 M172 48 L158 58 M172 48 L186 58 M172 68 L162 90 M172 68 L182 90"/>
      <!-- chat waves -->
      <text x="55" y="12" font-size="12" fill="#33ff66" stroke="none" opacity="0.65">~</text>
      <text x="128" y="8" font-size="12" fill="#33ff66" stroke="none" opacity="0.65">~~</text>
    </g>

    <!-- Footer line in terminal -->
    <rect x="48" y="420" width="12" height="20" fill="#33ff66" opacity="0.9"/>
    <text x="70" y="435" font-family="ui-monospace, SFMono-Regular, Menlo, Monaco, Consolas, monospace"
          font-size="14" fill="#6b7280">talk once. leave nothing.</text>
  </g>

  <!-- Bottom brand strip -->
  <text x="640" y="600" text-anchor="middle"
        font-family="ui-monospace, SFMono-Regular, Menlo, Monaco, Consolas, monospace"
        font-size="13" fill="#4b5563" letter-spacing="2">github.com/tomzsh/GhostChat</text>
</svg>
